<?xml version="1.0" encoding="UTF-8"?> <svg xmlns="http://www.w3.org/2000/svg" id="Layer_1" data-name="Layer 1" viewBox="0 0 254.01 236.03"><defs><style>.cls-1{fill:#75a3b0;}.cls-2{fill:#114f5b;}.cls-3{fill:#3d868e;}.cls-4{fill:#fff;}</style></defs><polygon class="cls-1" points="85.38 194.31 221 194.31 254.01 236.03 254.01 25.68 85.38 25.68 85.38 194.31"></polygon><polygon class="cls-2" points="168.63 25.68 168.63 0 0 0 0 210.35 33.01 168.63 85.38 168.63 85.38 25.68 168.63 25.68"></polygon><rect class="cls-3" x="85.38" y="25.68" width="83.24" height="142.95"></rect><path class="cls-4" d="M78.14,72.7H57.87v81.72H45.92V72.7H25.65V60.61H78.14Z" transform="translate(-9.64 -10.9)"></path><path class="cls-4" d="M136.48,154.42q-6.67,0-10.7-2.42a22,22,0,0,1-6-5q-5.3-6.87-5.29-19.35V87.34q0-12.47,5.29-19.35a20.57,20.57,0,0,1,2.45-2.54,17.76,17.76,0,0,1,3.53-2.36,22.86,22.86,0,0,1,4.72-1.78,23.92,23.92,0,0,1,6-.7q6.79,0,10.76,2.42a22.55,22.55,0,0,1,6,5q5.28,6.89,5.29,19.35v40.35q0,12.48-5.29,19.35a22.36,22.36,0,0,1-6,5Q143.28,154.43,136.48,154.42Zm0-81.72a21.08,21.08,0,0,0-3.09.26,6.91,6.91,0,0,0-3.33,1.59,9.61,9.61,0,0,0-2.71,4.33,26.24,26.24,0,0,0-1.07,8.46v40.35a26.75,26.75,0,0,0,1.07,8.59,9.61,9.61,0,0,0,2.71,4.33,6.91,6.91,0,0,0,3.33,1.59,21.08,21.08,0,0,0,3.09.26,21.7,21.7,0,0,0,3-.26,7,7,0,0,0,3.4-1.59,9.6,9.6,0,0,0,2.7-4.33,26.47,26.47,0,0,0,1.07-8.59V87.34a26,26,0,0,0-1.07-8.46,9.6,9.6,0,0,0-2.7-4.33A7,7,0,0,0,139.5,73,21.7,21.7,0,0,0,136.48,72.7Z" transform="translate(-9.64 -10.9)"></path><path class="cls-4" d="M234,154.42,212.85,116l-4.91,7.77v30.67H196.11v-34H196l.13-.26V60.61h11.83v41l26.31-41h14.22l-28.19,43.91,27.31,49.9Z" transform="translate(-9.64 -10.9)"></path></svg> 